<svg width="1024" height="1024" viewBox="0 0 1024 1024" fill="none" xmlns="http://www.w3.org/2000/svg">
<circle cx="338.425" cy="338.743" r="145" fill="#08C464" style="fill:#08C464;fill:color(display-p3 0.0314 0.7686 0.3922);fill-opacity:1;"/>
<circle cx="338.425" cy="686.682" r="145" fill="#08C464" style="fill:#08C464;fill:color(display-p3 0.0314 0.7686 0.3922);fill-opacity:1;"/>
<circle cx="687" cy="686.682" r="145" fill="#08C464" style="fill:#08C464;fill:color(display-p3 0.0314 0.7686 0.3922);fill-opacity:1;"/>
<path d="M832 337.492L831.988 339.366C830.985 418.584 766.455 482.492 687 482.492C607.545 482.492 543.015 418.584 542.012 339.366L542 337.492V192.492H832V337.492Z" fill="#08C464" style="fill:#08C464;fill:color(display-p3 0.0314 0.7686 0.3922);fill-opacity:1;"/>
<path d="M660.562 514.856C580.48 514.856 515.561 579.774 515.561 659.856L508.438 659.856C508.438 579.775 443.52 514.856 363.438 514.856L363.439 509.144C443.52 509.144 508.438 444.226 508.438 364.144L515.561 364.144C515.561 444.225 580.48 509.144 660.562 509.144L660.562 514.856Z" fill="#08C464" style="fill:#08C464;fill:color(display-p3 0.0314 0.7686 0.3922);fill-opacity:1;"/>
</svg>
